<svg width="17" height="17" viewBox="0 0 17 17" fill="none" xmlns="http://www.w3.org/2000/svg">
<path d="M17.4395 23C17.0363 23 16.7339 23 16.3306 23C11.3911 22.4074 7.7621 20.1358 5.14113 17.2717C2.52016 14.4075 0.403226 10.7532 0 5.7162C0 5.22237 0 4.82731 0 4.33349C0.100806 3.44461 0.504032 2.85202 1.10887 2.25943C1.71371 1.56808 2.72177 0.777964 3.62903 0.679199C4.33468 0.679199 5.44355 1.17302 5.84677 1.76561C6.25 2.25943 6.45161 3.34584 6.65323 4.13596C6.85484 5.02484 7.25806 6.11125 7.15726 6.90137C6.95565 8.08655 5.34274 8.58037 4.93952 9.46925C6.55242 13.1235 9.07258 15.889 12.5 17.6667C13.3065 17.1729 14.1129 15.7902 15.3226 15.7902C15.7258 15.7902 16.3306 15.9877 16.7339 16.0865C17.2379 16.1852 17.6411 16.3828 18.0444 16.5803C18.75 16.8766 20.0605 17.1729 20.4637 17.7655C20.8669 18.3581 21.1694 19.3457 21.0685 19.9383C20.7661 21.2222 18.6492 22.6049 17.4395 23Z" fill="black"/>
</svg>
